<svg width="45" height="24" class="preserve-color" fill="none" xmlns="http://www.w3.org/2000/svg">
  <title>BILDplus Icon</title>
  <path d="M32.074 23.347h.459V.654H.499V23.347h31.575z" fill="#D00" stroke="#fff" stroke-width=".917" />
  <path d="M11.375 3.852h1.986v15.893h-1.986V3.852zM7.671 18.883a.863.863 0 0 1-.865.856H2.893V3.853h3.918a.86.86 0 0 1 .861.855V10.276a.82.82 0 0 1-.827.813h-.086c.501 0 .914.402.914.9v6.893h-.002z" fill="#fff" />
  <path d="M4.876 5.814h.815v4.525h-.815V5.814zM4.876 12.286h.815v5.486h-.815v-5.486z" fill="#D00" />
  <path d="M18.997 19.745V3.85h-1.988v2.767h-1.932a.859.859 0 0 0-.857.856l-.003 11.41a.862.862 0 0 0 .865.856l3.915.006z" fill="#fff" />
  <path d="M17.01 8.558h-.814v9.214h.815V8.558z" fill="#D00" />
  <path d="M8.53 3.852h1.985v1.962H8.53V3.852zM8.53 6.617h1.985v13.128H8.53V6.617z" fill="#fff" />
  <path d="M32.914 23.348c6.342 0 11.494-5.075 11.494-11.348 0-6.273-5.152-11.348-11.494-11.348C26.57.652 21.42 5.727 21.42 12c0 6.273 5.151 11.348 11.494 11.348z" fill="#333" stroke="#fff" stroke-width=".917" />
  <path d="M34.49 10.46V6.296h-3.15v4.163h-4.205v3.11h4.204v4.136h3.151V13.57h4.204v-3.11H34.49z" fill="#fff" />
</svg>
